<?xml version="1.0" standalone="no"?>
<!DOCTYPE svg PUBLIC "-//W3C//DTD SVG 20010904//EN"
 "http://www.w3.org/TR/2001/REC-SVG-20010904/DTD/svg10.dtd">
<svg version="1.0" xmlns="http://www.w3.org/2000/svg"
 width="555.000000pt" height="555.000000pt" viewBox="0 0 555.000000 555.000000"
 preserveAspectRatio="xMidYMid meet">
<metadata>
Created by potrace 1.11, written by Peter Selinger 2001-2013
</metadata>
<g transform="translate(0.000000,555.000000) scale(0.100000,-0.100000)"
fill="#000000" stroke="none">
<path d="M2885 5086 c-153 -26 -290 -80 -411 -159 -253 -167 -429 -445 -466
-739 l-12 -96 -48 78 c-205 334 -604 530 -996 490 -247 -26 -448 -119 -628
-292 -423 -406 -430 -1077 -16 -1494 134 -135 308 -235 480 -277 50 -12 92
-25 92 -28 0 -3 -19 -10 -42 -15 -29 -6 -42 -14 -41 -24 7 -48 447 -2066 452
-2072 5 -5 2967 631 3007 646 7 3 -32 199 -112 568 -67 309 -121 564 -119 566
2 2 344 -118 761 -266 418 -149 760 -269 761 -268 2 2 -412 1913 -424 1960 -8
29 -17 21 -588 -531 -342 -332 -582 -557 -586 -550 -3 7 -34 145 -69 307 -35
162 -66 298 -69 302 -3 4 -44 -1 -91 -12 -47 -10 -86 -17 -87 -16 -1 1 31 27
71 58 168 130 293 317 362 544 26 83 28 102 28 274 1 193 -6 234 -54 368 -123
333 -407 582 -760 667 -92 22 -297 28 -395 11z m-575 -1786 c87 -85 185 -155
292 -205 73 -34 231 -84 272 -86 19 -1 19 -1 -4 -10 -20 -7 -1093 -242 -1215
-266 -26 -5 -22 0 30 39 168 126 297 303 364 499 25 75 35 117 56 251 l6 38
61 -92 c34 -51 96 -126 138 -168z"/>
</g>
</svg>
