<?xml version="1.0" standalone="no"?>
<!DOCTYPE svg PUBLIC "-//W3C//DTD SVG 20010904//EN"
 "http://www.w3.org/TR/2001/REC-SVG-20010904/DTD/svg10.dtd">
<svg version="1.0" xmlns="http://www.w3.org/2000/svg"
 width="555.000000pt" height="555.000000pt" viewBox="0 0 555.000000 555.000000"
 preserveAspectRatio="xMidYMid meet">
<metadata>
Created by potrace 1.11, written by Peter Selinger 2001-2013
</metadata>
<g transform="translate(0.000000,555.000000) scale(0.100000,-0.100000)"
fill="#000000" stroke="none">
<path d="M2915 5093 c-51 -7 -187 -43 -245 -65 -247 -96 -452 -286 -565 -523
-44 -94 -70 -166 -80 -224 -3 -19 -8 -37 -10 -41 -2 -3 -7 -37 -10 -75 -4 -39
-9 -72 -11 -74 -2 -2 -9 9 -16 25 -44 99 -191 266 -311 354 -261 188 -609 245
-923 149 -348 -106 -619 -394 -714 -758 -34 -130 -34 -360 -1 -491 31 -119 76
-224 138 -322 106 -166 246 -290 424 -377 102 -49 280 -106 295 -93 4 4 4 2 0
-5 -3 -6 -27 -15 -52 -19 -40 -6 -44 -9 -39 -28 11 -37 14 -50 20 -86 3 -19
11 -55 16 -80 6 -25 13 -54 15 -65 2 -11 38 -175 79 -365 41 -189 77 -353 80
-365 2 -11 15 -72 29 -135 14 -63 39 -178 55 -256 17 -77 32 -147 35 -155 3
-8 8 -31 11 -53 3 -21 7 -41 9 -45 2 -3 7 -22 10 -41 6 -39 9 -54 26 -125 17
-74 17 -74 34 -152 9 -40 18 -87 21 -105 10 -53 10 -53 105 -28 19 6 143 33
275 61 292 62 230 48 485 104 118 26 226 49 240 51 14 3 54 12 90 20 36 9 76
18 89 20 14 3 95 20 181 39 86 19 167 36 181 38 13 3 42 10 64 15 22 6 54 13
70 16 17 3 39 7 50 10 11 2 52 11 90 20 39 8 142 30 230 50 266 58 493 107
517 111 13 3 75 16 138 30 63 14 130 28 149 31 19 3 44 10 56 14 l22 9 -23
103 c-13 57 -27 119 -30 138 -3 19 -9 49 -14 65 -5 17 -14 55 -19 85 -6 30
-13 64 -15 75 -2 11 -30 137 -61 280 -31 143 -58 267 -60 275 -2 8 -8 35 -14
60 -5 24 -8 46 -6 48 2 2 34 -7 72 -21 84 -31 184 -67 428 -152 105 -36 199
-70 210 -75 11 -5 58 -23 105 -39 101 -34 334 -117 550 -194 85 -31 156 -55
157 -54 1 2 -7 43 -18 92 -29 135 -90 417 -95 440 -8 40 -13 62 -38 175 -15
63 -29 128 -32 144 -2 15 -18 87 -34 160 -16 72 -32 149 -36 171 -3 22 -7 42
-9 45 -2 3 -29 123 -60 265 -30 143 -62 287 -70 320 -7 33 -19 86 -25 118 -14
69 1 76 -160 -79 -63 -62 -145 -140 -181 -175 -36 -35 -176 -171 -310 -301
-134 -130 -284 -275 -334 -323 -49 -47 -113 -109 -142 -136 -43 -42 -52 -47
-57 -32 -12 42 -126 577 -126 594 0 23 5 23 -100 -1 -46 -10 -86 -18 -87 -16
-2 1 18 18 45 37 222 158 385 440 419 724 37 302 -70 619 -284 846 -155 164
-344 265 -588 315 -35 7 -266 12 -310 7z m-788 -1550 c3 -10 31 -54 61 -98 66
-95 178 -206 271 -269 99 -66 254 -135 341 -152 79 -15 104 -22 88 -24 -10 -1
-21 -3 -25 -4 -17 -4 -119 -27 -141 -31 -13 -2 -32 -7 -42 -10 -10 -3 -28 -8
-41 -10 -12 -2 -171 -37 -353 -76 -182 -39 -340 -73 -351 -75 -11 -2 -82 -18
-158 -35 -76 -17 -141 -28 -144 -25 -4 3 1 6 10 6 10 0 17 4 17 8 0 4 12 15
28 24 40 25 152 136 204 204 122 159 207 387 211 562 1 26 15 29 24 5z"/>
</g>
</svg>
