<?xml version="1.0" encoding="UTF-8" standalone="no"?>
<!-- Created with Inkscape (http://www.inkscape.org/) -->

<svg
   xmlns:dc="http://purl.org/dc/elements/1.1/"
   xmlns:cc="http://creativecommons.org/ns#"
   xmlns:rdf="http://www.w3.org/1999/02/22-rdf-syntax-ns#"
   xmlns:svg="http://www.w3.org/2000/svg"
   xmlns="http://www.w3.org/2000/svg"
   xmlns:sodipodi="http://sodipodi.sourceforge.net/DTD/sodipodi-0.dtd"
   xmlns:inkscape="http://www.inkscape.org/namespaces/inkscape"
   width="1000"
   height="1000"
   id="svg2"
   version="1.1"
   inkscape:version="0.48.5 r10040"
   sodipodi:docname="film_thoughts_logo.svg">
  <defs
     id="defs4">
    <inkscape:path-effect
       effect="spiro"
       id="path-effect3097"
       is_visible="true" />
  </defs>
  <sodipodi:namedview
     id="base"
     pagecolor="#ffffff"
     bordercolor="#666666"
     borderopacity="1.0"
     inkscape:pageopacity="0.0"
     inkscape:pageshadow="2"
     inkscape:zoom="0.44"
     inkscape:cx="408.16498"
     inkscape:cy="445.92593"
     inkscape:document-units="px"
     inkscape:current-layer="layer2"
     showgrid="false"
     inkscape:showpageshadow="false"
     inkscape:window-width="1274"
     inkscape:window-height="748"
     inkscape:window-x="2"
     inkscape:window-y="0"
     inkscape:window-maximized="0" />
  <metadata
     id="metadata7">
    <rdf:RDF>
      <cc:Work
         rdf:about="">
        <dc:format>image/svg+xml</dc:format>
        <dc:type
           rdf:resource="http://purl.org/dc/dcmitype/StillImage" />
        <dc:title></dc:title>
      </cc:Work>
    </rdf:RDF>
  </metadata>
  <g
     inkscape:label="bottom"
     inkscape:groupmode="layer"
     id="layer1"
     transform="translate(0,-52.36218)"
     style="display:inline">
    <path
       sodipodi:type="arc"
       style="fill:#000000;fill-opacity:1;fill-rule:nonzero;stroke:none"
       id="path3021"
       sodipodi:cx="789.77271"
       sodipodi:cy="556.81818"
       sodipodi:rx="205.68182"
       sodipodi:ry="186.36363"
       d="m 995.45453,556.81818 a 205.68182,186.36363 0 1 1 -411.36365,0 205.68182,186.36363 0 1 1 411.36365,0 z"
       transform="matrix(0.88397794,0,0,0.89634146,39.676542,357.49023)" />
    <path
       sodipodi:type="arc"
       style="fill:none;stroke:#000000;stroke-width:5.66034174;stroke-miterlimit:4;stroke-opacity:1;stroke-dasharray:none"
       id="path3023"
       sodipodi:cx="145.45454"
       sodipodi:cy="472.72726"
       sodipodi:rx="329.54544"
       sodipodi:ry="279.54544"
       d="m 474.99998,472.72726 a 329.54544,279.54544 0 1 1 -659.09088,0 329.54544,279.54544 0 1 1 659.09088,0 z"
       transform="matrix(0.90433328,0,0,0.86283192,180.64243,-60.61291)" />
    <path
       transform="matrix(0.19315579,0,0,0.16266334,463.72279,550.6486)"
       d="m 474.99998,472.72726 a 329.54544,279.54544 0 1 1 -659.09088,0 329.54544,279.54544 0 1 1 659.09088,0 z"
       sodipodi:ry="279.54544"
       sodipodi:rx="329.54544"
       sodipodi:cy="472.72726"
       sodipodi:cx="145.45454"
       id="path3799"
       style="fill:none;stroke:#000000;stroke-width:28.20793533;stroke-miterlimit:4;stroke-opacity:1;stroke-dasharray:none"
       sodipodi:type="arc" />
    <path
       sodipodi:type="arc"
       style="fill:none;stroke:#000000;stroke-width:55.23864365;stroke-miterlimit:4;stroke-opacity:1;stroke-dasharray:none"
       id="path3801"
       sodipodi:cx="145.45454"
       sodipodi:cy="472.72726"
       sodipodi:rx="329.54544"
       sodipodi:ry="279.54544"
       d="m 474.99998,472.72726 a 329.54544,279.54544 0 1 1 -659.09088,0 329.54544,279.54544 0 1 1 659.09088,0 z"
       transform="matrix(0.10031633,0,0,0.08167373,575.40853,651.07096)" />
  </g>
  <g
     inkscape:groupmode="layer"
     id="layer2"
     inkscape:label="top">
    <g
       id="g3099"
       transform="matrix(0.69995214,-0.22534094,0.22534094,0.69995214,-52.304356,-247.49362)"
       inkscape:export-filename="/Users/brandonwalker/Documents/Stuff/biased-movie-reviews/assets/images/film-camera-logo-tilted.png"
       inkscape:export-xdpi="90"
       inkscape:export-ydpi="90">
      <rect
         inkscape:export-ydpi="90"
         inkscape:export-xdpi="90"
         inkscape:export-filename="/Users/brandonwalker/Documents/Stuff/biased-movie-reviews/assets/images/film-camera-logo.png"
         ry="0"
         y="817.18799"
         x="49.004768"
         height="215.1741"
         width="301.14786"
         id="rect3089"
         style="fill:#000000;fill-opacity:1;fill-rule:nonzero;stroke:#000000;stroke-width:8;stroke-miterlimit:4;stroke-opacity:1;stroke-dasharray:none" />
      <path
         inkscape:export-ydpi="90"
         inkscape:export-xdpi="90"
         inkscape:export-filename="/Users/brandonwalker/Documents/Stuff/biased-movie-reviews/assets/images/film-camera-logo.png"
         sodipodi:nodetypes="cccc"
         inkscape:connector-curvature="0"
         inkscape:original-d="M 353.06721,926.6576 506,831.722 l 0,189.8712 z"
         inkscape:path-effect="#path-effect3097"
         id="path3091"
         d="M 353.06721,926.6576 506,831.722 l 0,189.8712 -152.93279,-94.9356"
         style="fill:#000000;fill-opacity:1;stroke:#000000;stroke-width:8;stroke-miterlimit:4;stroke-opacity:1;stroke-dasharray:none" />
      <path
         inkscape:export-ydpi="90"
         inkscape:export-xdpi="90"
         inkscape:export-filename="/Users/brandonwalker/Documents/Stuff/biased-movie-reviews/assets/images/film-camera-logo.png"
         sodipodi:type="arc"
         style="fill:#000000;fill-opacity:1;stroke:#000000;stroke-width:3.7118566;stroke-miterlimit:4;stroke-opacity:1;stroke-dasharray:none"
         id="path3093"
         sodipodi:cx="187.82895"
         sodipodi:cy="258.88159"
         sodipodi:rx="47.039474"
         sodipodi:ry="47.039474"
         d="m 234.86842,258.88159 c 0,25.97919 -21.06029,47.03948 -47.03947,47.03948 -25.97919,0 -47.03948,-21.06029 -47.03948,-47.03948 0,-25.97918 21.06029,-47.03947 47.03948,-47.03947 25.97918,0 47.03947,21.06029 47.03947,47.03947 z"
         transform="matrix(2.1552557,0,0,2.1552557,-307.43732,156.44352)" />
      <path
         inkscape:export-ydpi="90"
         inkscape:export-xdpi="90"
         inkscape:export-filename="/Users/brandonwalker/Documents/Stuff/biased-movie-reviews/assets/images/film-camera-logo.png"
         transform="matrix(2.1552557,0,0,2.1552557,-103.20951,156.44352)"
         d="m 234.86842,258.88159 c 0,25.97919 -21.06029,47.03948 -47.03947,47.03948 -25.97919,0 -47.03948,-21.06029 -47.03948,-47.03948 0,-25.97918 21.06029,-47.03947 47.03948,-47.03947 25.97918,0 47.03947,21.06029 47.03947,47.03947 z"
         sodipodi:ry="47.039474"
         sodipodi:rx="47.039474"
         sodipodi:cy="258.88159"
         sodipodi:cx="187.82895"
         id="path3095"
         style="fill:#000000;fill-opacity:1;stroke:#000000;stroke-width:3.7118566;stroke-miterlimit:4;stroke-opacity:1;stroke-dasharray:none"
         sodipodi:type="arc" />
    </g>
  </g>
</svg>
